<svg xmlns="http://www.w3.org/2000/svg" xmlns:xlink="http://www.w3.org/1999/xlink" width="1646.467" height="1141.819" viewBox="0 0 1646.467 1141.819">
  <defs>
    <clipPath id="clip-path">
      <path id="Path_2204" data-name="Path 2204" d="M56.693,386.589c0,185.9,150.7,336.6,336.615,336.6,185.887,0,336.6-150.7,336.6-336.6S579.2,49.974,393.308,49.974c-185.911,0-336.615,150.7-336.615,336.615" transform="translate(-56.693 -49.974)" fill="#48b773"/>
    </clipPath>
    <clipPath id="clip-path-2">
      <rect id="Rectangle_2680" data-name="Rectangle 2680" width="1646.467" height="1141.819" fill="none"/>
    </clipPath>
  </defs>
  <g id="Group_10690" data-name="Group 10690" transform="translate(-547.533 -60.096)">
    <g id="Group_2807" data-name="Group 2807" transform="translate(1223.359 374.999)">
      <g id="Group_2806" data-name="Group 2806" transform="translate(-169 -102.914)" clip-path="url(#clip-path)">
        <path id="Path_2134" data-name="Path 2134" d="M99.657,70.823A22.329,22.329,0,1,1,77.335,48.5,22.32,22.32,0,0,1,99.657,70.823" transform="translate(-75.618 -66.451)" fill="#48b773"/>
        <path id="Path_2135" data-name="Path 2135" d="M108.823,70.823A22.329,22.329,0,1,1,86.5,48.5a22.32,22.32,0,0,1,22.322,22.322" transform="translate(26.841 -66.451)" fill="#48b773"/>
        <path id="Path_2136" data-name="Path 2136" d="M117.99,70.823A22.329,22.329,0,1,1,95.668,48.5,22.32,22.32,0,0,1,117.99,70.823" transform="translate(129.311 -66.451)" fill="#48b773"/>
        <path id="Path_2137" data-name="Path 2137" d="M127.157,70.823A22.329,22.329,0,1,1,104.835,48.5a22.32,22.32,0,0,1,22.323,22.322" transform="translate(231.781 -66.451)" fill="#48b773"/>
        <path id="Path_2138" data-name="Path 2138" d="M136.323,70.823A22.329,22.329,0,1,1,114,48.5a22.32,22.32,0,0,1,22.322,22.322" transform="translate(334.239 -66.451)" fill="#48b773"/>
        <path id="Path_2139" data-name="Path 2139" d="M145.49,70.823A22.329,22.329,0,1,1,123.168,48.5,22.32,22.32,0,0,1,145.49,70.823" transform="translate(436.709 -66.451)" fill="#48b773"/>
        <path id="Path_2140" data-name="Path 2140" d="M154.657,70.823A22.329,22.329,0,1,1,132.335,48.5a22.32,22.32,0,0,1,22.323,22.322" transform="translate(539.179 -66.451)" fill="#48b773"/>
        <path id="Path_2141" data-name="Path 2141" d="M99.657,76.885A22.329,22.329,0,1,1,77.335,54.563,22.32,22.32,0,0,1,99.657,76.885" transform="translate(-75.618 1.322)" fill="#48b773"/>
        <path id="Path_2142" data-name="Path 2142" d="M108.823,76.885A22.329,22.329,0,1,1,86.5,54.563a22.32,22.32,0,0,1,22.322,22.322" transform="translate(26.841 1.322)" fill="#48b773"/>
        <path id="Path_2143" data-name="Path 2143" d="M117.99,76.885A22.329,22.329,0,1,1,95.668,54.563,22.32,22.32,0,0,1,117.99,76.885" transform="translate(129.311 1.322)" fill="#48b773"/>
        <path id="Path_2144" data-name="Path 2144" d="M127.157,76.885a22.329,22.329,0,1,1-22.323-22.322,22.32,22.32,0,0,1,22.323,22.322" transform="translate(231.781 1.322)" fill="#48b773"/>
        <path id="Path_2145" data-name="Path 2145" d="M136.323,76.885A22.329,22.329,0,1,1,114,54.563a22.32,22.32,0,0,1,22.322,22.322" transform="translate(334.239 1.322)" fill="#48b773"/>
        <path id="Path_2146" data-name="Path 2146" d="M145.49,76.885a22.329,22.329,0,1,1-22.322-22.322A22.32,22.32,0,0,1,145.49,76.885" transform="translate(436.709 1.322)" fill="#48b773"/>
        <path id="Path_2147" data-name="Path 2147" d="M154.657,76.885a22.329,22.329,0,1,1-22.323-22.322,22.32,22.32,0,0,1,22.323,22.322" transform="translate(539.179 1.322)" fill="#48b773"/>
        <path id="Path_2148" data-name="Path 2148" d="M99.657,82.947A22.329,22.329,0,1,1,77.335,60.625,22.32,22.32,0,0,1,99.657,82.947" transform="translate(-75.618 69.084)" fill="#48b773"/>
        <path id="Path_2149" data-name="Path 2149" d="M108.823,82.947A22.329,22.329,0,1,1,86.5,60.625a22.32,22.32,0,0,1,22.322,22.322" transform="translate(26.841 69.084)" fill="#48b773"/>
        <path id="Path_2150" data-name="Path 2150" d="M117.99,82.947A22.329,22.329,0,1,1,95.668,60.625,22.32,22.32,0,0,1,117.99,82.947" transform="translate(129.311 69.084)" fill="#48b773"/>
        <path id="Path_2151" data-name="Path 2151" d="M127.157,82.947a22.329,22.329,0,1,1-22.323-22.322,22.32,22.32,0,0,1,22.323,22.322" transform="translate(231.781 69.084)" fill="#48b773"/>
        <path id="Path_2152" data-name="Path 2152" d="M136.323,82.947A22.329,22.329,0,1,1,114,60.625a22.32,22.32,0,0,1,22.322,22.322" transform="translate(334.239 69.084)" fill="#48b773"/>
        <path id="Path_2153" data-name="Path 2153" d="M145.49,82.947a22.329,22.329,0,1,1-22.322-22.322A22.32,22.32,0,0,1,145.49,82.947" transform="translate(436.709 69.084)" fill="#48b773"/>
        <path id="Path_2154" data-name="Path 2154" d="M154.657,82.947a22.329,22.329,0,1,1-22.323-22.322,22.32,22.32,0,0,1,22.323,22.322" transform="translate(539.179 69.084)" fill="#48b773"/>
        <path id="Path_2155" data-name="Path 2155" d="M99.657,89.011A22.329,22.329,0,1,1,77.335,66.688,22.32,22.32,0,0,1,99.657,89.011" transform="translate(-75.618 136.857)" fill="#48b773"/>
        <path id="Path_2156" data-name="Path 2156" d="M108.823,89.011A22.329,22.329,0,1,1,86.5,66.688a22.32,22.32,0,0,1,22.322,22.323" transform="translate(26.841 136.857)" fill="#48b773"/>
        <path id="Path_2157" data-name="Path 2157" d="M117.99,89.011A22.329,22.329,0,1,1,95.668,66.688,22.32,22.32,0,0,1,117.99,89.011" transform="translate(129.311 136.857)" fill="#48b773"/>
        <path id="Path_2158" data-name="Path 2158" d="M127.157,89.011a22.329,22.329,0,1,1-22.323-22.323,22.32,22.32,0,0,1,22.323,22.323" transform="translate(231.781 136.857)" fill="#48b773"/>
        <path id="Path_2159" data-name="Path 2159" d="M136.323,89.011A22.329,22.329,0,1,1,114,66.688a22.32,22.32,0,0,1,22.322,22.323" transform="translate(334.239 136.857)" fill="#48b773"/>
        <path id="Path_2160" data-name="Path 2160" d="M145.49,89.011a22.329,22.329,0,1,1-22.322-22.323A22.32,22.32,0,0,1,145.49,89.011" transform="translate(436.709 136.857)" fill="#48b773"/>
        <path id="Path_2161" data-name="Path 2161" d="M154.657,89.011a22.329,22.329,0,1,1-22.323-22.323,22.32,22.32,0,0,1,22.323,22.323" transform="translate(539.179 136.857)" fill="#48b773"/>
        <path id="Path_2162" data-name="Path 2162" d="M99.657,95.072A22.329,22.329,0,1,1,77.335,72.75,22.32,22.32,0,0,1,99.657,95.072" transform="translate(-75.618 204.619)" fill="#48b773"/>
        <path id="Path_2163" data-name="Path 2163" d="M108.823,95.072A22.329,22.329,0,1,1,86.5,72.75a22.32,22.32,0,0,1,22.322,22.322" transform="translate(26.841 204.619)" fill="#48b773"/>
        <path id="Path_2164" data-name="Path 2164" d="M117.99,95.072A22.329,22.329,0,1,1,95.668,72.75,22.32,22.32,0,0,1,117.99,95.072" transform="translate(129.311 204.619)" fill="#48b773"/>
        <path id="Path_2165" data-name="Path 2165" d="M127.157,95.072A22.329,22.329,0,1,1,104.835,72.75a22.32,22.32,0,0,1,22.323,22.322" transform="translate(231.781 204.619)" fill="#48b773"/>
        <path id="Path_2166" data-name="Path 2166" d="M136.323,95.072A22.329,22.329,0,1,1,114,72.75a22.32,22.32,0,0,1,22.322,22.322" transform="translate(334.239 204.619)" fill="#48b773"/>
        <path id="Path_2167" data-name="Path 2167" d="M145.49,95.072A22.329,22.329,0,1,1,123.168,72.75,22.32,22.32,0,0,1,145.49,95.072" transform="translate(436.709 204.619)" fill="#48b773"/>
        <path id="Path_2168" data-name="Path 2168" d="M154.657,95.072A22.329,22.329,0,1,1,132.335,72.75a22.32,22.32,0,0,1,22.323,22.322" transform="translate(539.179 204.619)" fill="#48b773"/>
        <path id="Path_2169" data-name="Path 2169" d="M99.657,101.135A22.329,22.329,0,1,1,77.335,78.813a22.32,22.32,0,0,1,22.322,22.322" transform="translate(-75.618 272.392)" fill="#48b773"/>
        <path id="Path_2170" data-name="Path 2170" d="M108.823,101.135A22.329,22.329,0,1,1,86.5,78.813a22.32,22.32,0,0,1,22.322,22.322" transform="translate(26.841 272.392)" fill="#48b773"/>
        <path id="Path_2171" data-name="Path 2171" d="M117.99,101.135A22.329,22.329,0,1,1,95.668,78.813a22.32,22.32,0,0,1,22.323,22.322" transform="translate(129.311 272.392)" fill="#48b773"/>
        <path id="Path_2172" data-name="Path 2172" d="M127.157,101.135a22.329,22.329,0,1,1-22.323-22.322,22.32,22.32,0,0,1,22.323,22.322" transform="translate(231.781 272.392)" fill="#48b773"/>
        <path id="Path_2173" data-name="Path 2173" d="M136.323,101.135A22.329,22.329,0,1,1,114,78.813a22.32,22.32,0,0,1,22.322,22.322" transform="translate(334.239 272.392)" fill="#48b773"/>
        <path id="Path_2174" data-name="Path 2174" d="M145.49,101.135a22.329,22.329,0,1,1-22.322-22.322,22.32,22.32,0,0,1,22.322,22.322" transform="translate(436.709 272.392)" fill="#48b773"/>
        <path id="Path_2175" data-name="Path 2175" d="M154.657,101.135a22.329,22.329,0,1,1-22.323-22.322,22.32,22.32,0,0,1,22.323,22.322" transform="translate(539.179 272.392)" fill="#48b773"/>
        <path id="Path_2176" data-name="Path 2176" d="M99.657,107.2A22.329,22.329,0,1,1,77.335,84.875,22.32,22.32,0,0,1,99.657,107.2" transform="translate(-75.618 340.153)" fill="#48b773"/>
        <path id="Path_2177" data-name="Path 2177" d="M108.823,107.2A22.329,22.329,0,1,1,86.5,84.875,22.32,22.32,0,0,1,108.823,107.2" transform="translate(26.841 340.153)" fill="#48b773"/>
        <path id="Path_2178" data-name="Path 2178" d="M117.99,107.2A22.329,22.329,0,1,1,95.668,84.875,22.32,22.32,0,0,1,117.99,107.2" transform="translate(129.311 340.153)" fill="#48b773"/>
        <path id="Path_2179" data-name="Path 2179" d="M127.157,107.2a22.329,22.329,0,1,1-22.323-22.322A22.32,22.32,0,0,1,127.157,107.2" transform="translate(231.781 340.153)" fill="#48b773"/>
        <path id="Path_2180" data-name="Path 2180" d="M136.323,107.2A22.329,22.329,0,1,1,114,84.875,22.32,22.32,0,0,1,136.323,107.2" transform="translate(334.239 340.153)" fill="#48b773"/>
        <path id="Path_2181" data-name="Path 2181" d="M145.49,107.2a22.329,22.329,0,1,1-22.322-22.322A22.32,22.32,0,0,1,145.49,107.2" transform="translate(436.709 340.153)" fill="#48b773"/>
        <path id="Path_2182" data-name="Path 2182" d="M154.657,107.2a22.329,22.329,0,1,1-22.323-22.322A22.32,22.32,0,0,1,154.657,107.2" transform="translate(539.179 340.153)" fill="#48b773"/>
        <path id="Path_2183" data-name="Path 2183" d="M99.657,113.26A22.329,22.329,0,1,1,77.335,90.938,22.32,22.32,0,0,1,99.657,113.26" transform="translate(-75.618 407.926)" fill="#48b773"/>
        <path id="Path_2184" data-name="Path 2184" d="M108.823,113.26A22.329,22.329,0,1,1,86.5,90.938a22.32,22.32,0,0,1,22.322,22.322" transform="translate(26.841 407.926)" fill="#48b773"/>
        <path id="Path_2185" data-name="Path 2185" d="M117.99,113.26A22.329,22.329,0,1,1,95.668,90.938,22.32,22.32,0,0,1,117.99,113.26" transform="translate(129.311 407.926)" fill="#48b773"/>
        <path id="Path_2186" data-name="Path 2186" d="M127.157,113.26a22.329,22.329,0,1,1-22.323-22.322,22.32,22.32,0,0,1,22.323,22.322" transform="translate(231.781 407.926)" fill="#48b773"/>
        <path id="Path_2187" data-name="Path 2187" d="M136.323,113.26A22.329,22.329,0,1,1,114,90.938a22.32,22.32,0,0,1,22.322,22.322" transform="translate(334.239 407.926)" fill="#48b773"/>
        <path id="Path_2188" data-name="Path 2188" d="M145.49,113.26a22.329,22.329,0,1,1-22.322-22.322A22.32,22.32,0,0,1,145.49,113.26" transform="translate(436.709 407.926)" fill="#48b773"/>
        <path id="Path_2189" data-name="Path 2189" d="M154.657,113.26a22.329,22.329,0,1,1-22.323-22.322,22.32,22.32,0,0,1,22.323,22.322" transform="translate(539.179 407.926)" fill="#48b773"/>
        <path id="Path_2190" data-name="Path 2190" d="M99.657,119.323A22.329,22.329,0,1,1,77.335,97a22.32,22.32,0,0,1,22.322,22.322" transform="translate(-75.618 475.688)" fill="#48b773"/>
        <path id="Path_2191" data-name="Path 2191" d="M108.823,119.323A22.329,22.329,0,1,1,86.5,97a22.32,22.32,0,0,1,22.322,22.322" transform="translate(26.841 475.688)" fill="#48b773"/>
        <path id="Path_2192" data-name="Path 2192" d="M117.99,119.323A22.329,22.329,0,1,1,95.668,97a22.32,22.32,0,0,1,22.323,22.322" transform="translate(129.311 475.688)" fill="#48b773"/>
        <path id="Path_2193" data-name="Path 2193" d="M127.157,119.323A22.329,22.329,0,1,1,104.835,97a22.32,22.32,0,0,1,22.323,22.322" transform="translate(231.781 475.688)" fill="#48b773"/>
        <path id="Path_2194" data-name="Path 2194" d="M136.323,119.323A22.329,22.329,0,1,1,114,97a22.32,22.32,0,0,1,22.322,22.322" transform="translate(334.239 475.688)" fill="#48b773"/>
        <path id="Path_2195" data-name="Path 2195" d="M145.49,119.323A22.329,22.329,0,1,1,123.168,97a22.32,22.32,0,0,1,22.322,22.322" transform="translate(436.709 475.688)" fill="#48b773"/>
        <path id="Path_2196" data-name="Path 2196" d="M154.657,119.323A22.329,22.329,0,1,1,132.335,97a22.32,22.32,0,0,1,22.323,22.322" transform="translate(539.179 475.688)" fill="#48b773"/>
        <path id="Path_2197" data-name="Path 2197" d="M99.657,125.385a22.329,22.329,0,1,1-22.322-22.322,22.32,22.32,0,0,1,22.322,22.322" transform="translate(-75.618 543.461)" fill="#48b773"/>
        <path id="Path_2198" data-name="Path 2198" d="M108.823,125.385A22.329,22.329,0,1,1,86.5,103.063a22.32,22.32,0,0,1,22.322,22.322" transform="translate(26.841 543.461)" fill="#48b773"/>
        <path id="Path_2199" data-name="Path 2199" d="M117.99,125.385a22.329,22.329,0,1,1-22.323-22.322,22.32,22.32,0,0,1,22.323,22.322" transform="translate(129.311 543.461)" fill="#48b773"/>
        <path id="Path_2200" data-name="Path 2200" d="M127.157,125.385a22.329,22.329,0,1,1-22.323-22.322,22.32,22.32,0,0,1,22.323,22.322" transform="translate(231.781 543.461)" fill="#48b773"/>
        <path id="Path_2201" data-name="Path 2201" d="M136.323,125.385A22.329,22.329,0,1,1,114,103.063a22.32,22.32,0,0,1,22.322,22.322" transform="translate(334.239 543.461)" fill="#48b773"/>
        <path id="Path_2202" data-name="Path 2202" d="M145.49,125.385a22.329,22.329,0,1,1-22.322-22.322,22.32,22.32,0,0,1,22.322,22.322" transform="translate(436.709 543.461)" fill="#48b773"/>
        <path id="Path_2203" data-name="Path 2203" d="M154.657,125.385a22.329,22.329,0,1,1-22.323-22.322,22.32,22.32,0,0,1,22.323,22.322" transform="translate(539.179 543.461)" fill="#48b773"/>
      </g>
    </g>
    <g id="Group_2943" data-name="Group 2943" transform="translate(547.533 60.096)">
      <g id="Group_2893" data-name="Group 2893" transform="translate(0)">
        <g id="Group_2892" data-name="Group 2892" clip-path="url(#clip-path-2)">
          <path id="Path_2704" data-name="Path 2704" d="M1292.927,675.5l134.622,10.6,26.478,136.5-80.851,64.727-107.444-20.411-70.738-101.628Z" transform="translate(-469.694 -265.504)" fill="#e3a677"/>
          <path id="Path_2705" data-name="Path 2705" d="M1427.645,731.916c-29.566,39.479-56.788,81.074-96.713,110.034,66.656-12.9,119.765-57.763,160.717-111.913l-109.354-35.125c-5.093-1.636-10.87-3.221-15.571-.67-4.43,2.4-6.338,7.649-7.887,12.444C1354.213,721,1348.8,735.3,1344.9,749.823c-3.964,14.768,2.752,15.943,16.281,13.995,21.757-3.135,52.482-13.556,66.461-31.9" transform="translate(-523.124 -272.343)" fill="#d69c70"/>
          <path id="Path_2706" data-name="Path 2706" d="M1143.034,700.95a275.539,275.539,0,0,0,33.1,86.057c12.484,20.9,22.8,37.667,44.133,48.545,6.828,3.482,25.683,11.918,49.648,8.826,23.268-3,38.774-15.248,48.544-23.169,34.146-27.681,31.955-59.829,51.854-61.784,5.137-.505,16.215,5.752,38.37,18.265,11.718,6.618,22.779,13.337,26.725,15.936,26.781,17.64,47.078,57.09,68.4,99.3,51.216,101.362,54.826,110.781,71.715,123.569,6.4,4.843,19.492,13.773,30.892,30.892,12.5,18.768,22.12,56.818,14.64,62.525-8.637,6.588-27.65-35.719-59.847-35.6-33.669.127-51.172,34.869-67.328,27.135-15.59-7.464-6.56-43.295-19.86-47.442-9.62-3-18.482,14.46-49.648,35.305-8.271,5.532-13.076,7.935-30.156,16.918-77.968,41.005-75.464,42.3-89.735,47.809-32.65,12.609-59.762,11.25-100.767,9.194-75.585-3.79-81.724-25.136-168.8-33.1-40.993-3.749-50.908-.589-60.681-11.033-19.494-20.836-.053-54.8,17.653-154.462,7.951-44.751,7-54.613,17.653-108.122,15.544-78.079,25.15-95.165,40.821-105.916,14.134-9.7,24.957-8.586,58.475-27.583a354.325,354.325,0,0,0,34.2-22.066" transform="translate(-379.726 -275.507)" fill="#ffca47"/>
          <path id="Path_2707" data-name="Path 2707" d="M1168.107,1049.907a296.213,296.213,0,0,0,.248,55.447,280.255,280.255,0,0,0,10.412,53.012l-12.491,4.391a301.1,301.1,0,0,1,1.832-112.85" transform="translate(-456.654 -412.665)" fill="#aa852a"/>
          <path id="Path_2709" data-name="Path 2709" d="M1651.625,1401.691l-82.942,83.9-160.89-67.908,90.839-69.993Z" transform="translate(-553.335 -529.707)" fill="#fff"/>
          <path id="Path_2710" data-name="Path 2710" d="M1580.22,1390.925l-59.28,50.415-12.357-5.052,59.666-49.7Z" transform="translate(-592.95 -544.996)" fill="#ccc"/>
          <path id="Path_2711" data-name="Path 2711" d="M1621.208,1405.6l-58.444,51.9L1550,1452.28l58.868-51.156Z" transform="translate(-609.23 -550.711)" fill="#ccc"/>
          <path id="Path_2712" data-name="Path 2712" d="M1663.5,1420.726l-57.521,53.458-13.193-5.395,57.988-52.678Z" transform="translate(-626.048 -556.602)" fill="#ccc"/>
          <path id="Path_2713" data-name="Path 2713" d="M1707.173,1436.332l-56.5,55.089-13.644-5.578,57.02-54.272Z" transform="translate(-643.435 -562.678)" fill="#ccc"/>
          <path id="Path_2714" data-name="Path 2714" d="M1829.326,1364.138a32.886,32.886,0,0,0,4.567-3.932c10.871-11.347,10.44-30.768.988-43.321s-26.059-18.425-41.745-17.461c-18.782,1.153-35.785,10.814-52.883,18.672a298.989,298.989,0,0,1-100.385,26.271c-11.919.969-24.133,1.269-35.314,5.511-21.679,8.225-36.16,29.938-57.15,39.153a12.041,12.041,0,0,0-3.741,2.462c-2.594,2.612-6.345,3.916-9.868,5.183-4,1.438-8.254,3.248-10.37,6.934s-.462,9.621,3.766,10.059l-2.281,3.234a2.555,2.555,0,0,0,1.641,3.99c6.4,1.108,13.707-2.986,15.322-9.425-2.142.526-2.383,3.852-.764,5.351s4.106,1.529,6.274,1.125c9.463-1.766,16.929-9.914,26.487-11.058,7.708-.922,15.147,2.9,22.858,3.8,13.069,1.527,25.427-5.312,37.625-10.25,57.482-23.276,125.337-6.2,182.681-29.813a60.238,60.238,0,0,0,12.292-6.486" transform="translate(-598.422 -510.698)" fill="#f7b582"/>
          <path id="Path_2715" data-name="Path 2715" d="M1878.239,1204.67c-2.794,2.09-6.984.92-9.507-1.494s-3.856-5.771-5.5-8.858a42.4,42.4,0,0,0-5.652-8.143c-9.779-11.176-33.807-28.317-48.62-26.6-12.236,1.43-23.282,7.678-34.554,12.637-2.556,1.127-5.187,2.187-7.873,3.129-9.138,3.173-18.83,4.8-27.916,1.928a22.092,22.092,0,0,1-4.374-1.928c-9.134-5.184-24.465-11.248-26.882-16.908a.843.843,0,0,0-1.1-.456c-13.709,5.658-16.332,5.665-27.255,17.364H1603.16a359.046,359.046,0,0,0,21.495-46.076c13.373-34.944,21.181-71.761,32.865-107.312,5.966-18.17,13.027-36.059,22.177-52.876,5.176-9.507,21.787-43.4,35.247-41.5,8.013,1.127,15.008,17.673,19.145,23.844q9.162,13.678,18.322,27.365,19.346,28.864,38.68,57.749l42.752,63.835c15.6,23.3,40.272,58.538,45.609,85.795q.845,4.353,1.322,8.8c.368,3.487.271,7.6-2.534,9.692" transform="translate(-630.124 -364.556)" fill="#ffca47"/>
          <path id="Path_2716" data-name="Path 2716" d="M1405.067,1153.651c6.924,8.477,9.675,17.685,6.146,20.568s-12-1.651-18.927-10.128-9.676-17.684-6.147-20.567,12,1.651,18.928,10.127" transform="translate(-544.219 -449.12)" fill="#ccded9"/>
          <path id="Path_2717" data-name="Path 2717" d="M1572.86,1363.8l12.217,21.448,3.634,6.376-5.314-4.52-19.134-16.281Z" transform="translate(-614.836 -536.043)" fill="#ccded9"/>
          <path id="Path_2718" data-name="Path 2718" d="M1507.575,1284.437l-8.6,7.025-100.809-119.141,12.781-10.44Z" transform="translate(-549.551 -456.676)" fill="#08345b"/>
          <path id="Path_2719" data-name="Path 2719" d="M1597.434,1399.087l3.633,6.377-5.313-4.52a1.752,1.752,0,0,1,.362-1.7,1.46,1.46,0,0,1,1.319-.153" transform="translate(-627.192 -549.878)" fill="#575756"/>
          <path id="Path_2720" data-name="Path 2720" d="M1449.632,1223.639a1.48,1.48,0,0,1-1.151-.545l-48.5-59.374a1.485,1.485,0,0,1,2.3-1.88l48.5,59.373a1.486,1.486,0,0,1-1.149,2.426" transform="translate(-550.132 -456.446)" fill="#ccded9"/>
          <path id="Path_2721" data-name="Path 2721" d="M1491.453,1261.114l-12.087,9.874a.449.449,0,0,1-.631-.064l-1.151-1.409a.448.448,0,0,1,.064-.631l12.086-9.873a.448.448,0,0,1,.63.063l1.152,1.41a.447.447,0,0,1-.064.63" transform="translate(-580.726 -494.813)" fill="#ccded9"/>
          <path id="Path_2722" data-name="Path 2722" d="M1335.075,1315.492c4.236.829,8.711,1.644,12.788.227,11.64-4.045,11.125-21.459,20.128-29.874,4.845-4.529,11.869-5.829,18.5-6.052a78.263,78.263,0,0,1,57.367,22.954c3.958,3.988,7.712,9.146,6.88,14.7s-8.967,9.347-12.278,4.808c5.475,3.737,6.962,10.911,3.887,15.88a11.792,11.792,0,0,1-12.944,4.839c.308,7.959-6.4,15.548-14.337,16.219,3.486-.1,4.73,5.266,2.437,7.9s-6.137,3.089-9.613,3.371c-24.88,2.021-49.859,4.045-74.777,2.567a267.237,267.237,0,0,1-67.564-12.886c-5.3-1.742-11.362-4.59-12.222-10.1-.672-4.3,2.216-8.255,4.94-11.646,6.767-8.421,18.112-29.843,28.9-32.068,6.207-1.28,17.419,3.19,23.616,4.4,8.057,1.577,16.334,2.765,24.3,4.756" transform="translate(-492.582 -503.006)" fill="#f7b582"/>
          <path id="Path_2723" data-name="Path 2723" d="M1180.519,578.553c-29.224,29.683-34.629,53-33.835,69.141.755,15.331,6.87,19.486,10.3,45.6,4.145,31.577-3.817,32.952,1.471,54.43,3.871,15.722,7.626,12.911,29.421,55.9,10.132,19.987,11.484,24.056,16.182,25.008,15.232,3.087,38.924-33.152,47.073-67.669,1.849-7.829,6.743-31.853-1.471-67.668-13.027-56.8-48.018-95.271-69.139-114.743" transform="translate(-450.677 -227.398)" fill="#534741"/>
          <path id="Path_2724" data-name="Path 2724" d="M1206.717,545.346c-3.427,20.844-10.754,36.993-16.366,36.07s-7.383-18.568-3.955-39.411,10.754-36.993,16.367-36.07,7.382,18.568,3.955,39.412" transform="translate(-465.627 -198.841)" fill="#69c"/>
          <path id="Path_2725" data-name="Path 2725" d="M1189.266,535.079c-4.482,27.257-12.663,48.6-18.276,47.682s-6.528-23.767-2.046-51.024,12.664-48.606,18.276-47.683,6.528,23.767,2.046,51.024" transform="translate(-458.338 -190.245)" fill="#a3c2e0"/>
          <path id="Path_2726" data-name="Path 2726" d="M1278.821,398.6c-7.087.407-32.385,2.716-47.443,22.066-9.23,11.864-11.45,26.07-13.238,37.512-2.3,14.679.461,15.362-1.1,30.892-2.816,27.943-12.218,30.5-12.136,51.855.05,12.882,3.808,23.258,8.827,37.512,4.22,11.985,5.14,10.474,12.259,29.053,5.5,14.361,6.53,19.378,12.013,27.214,3.228,4.612,7.531,10.789,15.447,15.446,12.378,7.282,24.985,6.053,29.79,5.516,3.913-.437,8.281-1.362,35.305-15.446,21.585-11.25,24.427-13.593,26.478-15.446,10.876-9.823,16.14-20.858,18.756-26.479,3.991-8.574,5.511-15.3,7.724-25.376,1.756-8,5.052-23.005,5.516-39.719,1.161-41.8-15.935-74.713-23.17-88.264-10.514-19.691-17.09-31.6-32-39.718-16.911-9.208-34.285-7.945-43.027-6.62" transform="translate(-473.587 -156.306)" fill="#f7b582"/>
          <path id="Path_2727" data-name="Path 2727" d="M1472.1,655.146c-20.22,44.18-29.168,101.14,4.635,141.066,5.348,6.352,11.952,11.606,17.433,17.969,5.416,6.259,9.915,14.071,9.772,22.565-.045-8.465-4.661-16.1-10.177-22.206-5.569-6.2-12.268-11.287-17.841-17.612-22.857-25.475-28.265-62.352-22.364-95.189,2.828-16.651,8.152-32.756,14.559-48.294Z" transform="translate(-570.455 -256.835)" fill="#534741"/>
          <path id="Path_2728" data-name="Path 2728" d="M1333.833,327.72a71.783,71.783,0,0,0-36.149-3.511c-21.189,3.422-52.681,12.951-75.348,40.01-28.817,34.4-31.884,83.423-22.8,87.528,9.985,4.513,29.859-47.437,58.843-44.868,19.964,1.771,20.418,27.3,55.9,50.751,29.62,19.581,43.39,11.1,52.958,26.479,14.036,22.554-13.43,44.264-10.3,97.09,1.042,17.565,2.418,40.78,19.859,58.842,16.714,17.309,44.9,26.482,67.668,19.859,16.683-4.851,17.678-14.459,36.041-18.388,24.088-5.153,43.39,6.884,44.867,3.678,1.664-3.612-25.93-12.15-45.6-36.776-8.408-10.526-11.658-19.346-26.479-72.082-8.3-29.517-14-50.666-17.652-63.991-14.4-52.462-21.593-78.693-27.215-88.263-9.508-16.189-29.262-39.722-74.591-56.359" transform="translate(-469.694 -127.072)" fill="#534741"/>
          <path id="Path_2729" data-name="Path 2729" d="M1192.25,456.26c-12.751-60.316,36.361-103.935,94.179-104.007,55.262-.463,107.041,37.347,116.574,92.929a109.3,109.3,0,0,1,1.656,21.857,111.069,111.069,0,0,1-2.6,21.3.867.867,0,0,1-1.733,0c-.242-58.421-35.451-105.965-93.811-116.976-39.784-7.893-86.064,6.468-103.894,45.281-5.874,12.258-8.467,25.959-8.64,39.62a.857.857,0,0,1-.868.847.9.9,0,0,1-.864-.847" transform="translate(-467.816 -138.449)" fill="#a3c2e0"/>
          <path id="Path_2730" data-name="Path 2730" d="M1501.259,595.482c-3.427,20.844-1.656,38.488,3.955,39.412s12.939-15.227,16.366-36.071,1.656-38.488-3.956-39.411-12.938,15.226-16.366,36.07" transform="translate(-589.385 -219.861)" fill="#69c"/>
          <path id="Path_2731" data-name="Path 2731" d="M1517.29,590.721c-4.482,27.257-3.566,50.1,2.046,51.024s13.794-20.425,18.276-47.683,3.566-50.1-2.046-51.024-13.794,20.425-18.275,47.682" transform="translate(-595.255 -213.428)" fill="#a3c2e0"/>
          <path id="Path_2742" data-name="Path 2742" d="M715.364,1593.863l313.25,10.649c8.565,2.768,25.63-8.687,32.53-18.212l43.394-45.99c2.557-2.71.831-7.374-2.759-7.453l-432.915-9.511Z" transform="translate(-262.898 -598.75)" fill="#5c5c5c"/>
          <path id="Path_2743" data-name="Path 2743" d="M996.226,1482.466l-377.583-8.294c-12.793-.281-23.263-10.5-23.386-22.873l-2.184-218.874a23.162,23.162,0,0,1,23.849-23.493l392.673,8.627a23.161,23.161,0,0,1,22.794,24.518l-11.794,218.566c-.667,12.353-11.577,22.1-24.369,21.824" transform="translate(-233.107 -475.167)" fill="#4d4d4d"/>
          <path id="Path_2744" data-name="Path 2744" d="M940.84,1414.3a22.948,22.948,0,1,1-22.948-22.948A22.947,22.947,0,0,1,940.84,1414.3" transform="translate(-351.759 -546.87)" fill="#333"/>
          <path id="Path_2745" data-name="Path 2745" d="M930.818,1396.83a22.915,22.915,0,0,1-33.145,28.149,22.938,22.938,0,1,0,33.145-28.149" transform="translate(-352.831 -549.023)" fill="#5c5c5c"/>
          <rect id="Rectangle_2679" data-name="Rectangle 2679" width="500.895" height="8.077" transform="translate(848.616 971.459) rotate(-3.16)" fill="#630"/>
          <path id="Path_2757" data-name="Path 2757" d="M1398.168,1548.087s233.559-172.721,250.067-13.8Z" transform="translate(-549.551 -576.628)" fill="#f2f2f2"/>
          <path id="Path_2758" data-name="Path 2758" d="M2060.243,1527.911s-248.78-102.969-250.068,13.805Z" transform="translate(-711.492 -584.063)" fill="#f2f2f2"/>
          <path id="Path_2759" data-name="Path 2759" d="M1813.764,1573.712c-.483-8.732-10.053-15.3-10.053-15.3s-8.79,7.584-8.308,16.316,4.333,3.805,9.4,3.526,9.439,4.192,8.958-4.539" transform="translate(-705.678 -612.532)" fill="#99601b"/>
          <path id="Path_2760" data-name="Path 2760" d="M1738.477,1082.872s-35.822,49.759-14.49,153.539c14.846-8.933,8.659-9.406,26.79-17.237-6.683-8.2-8.781-11.622-14.055-24.637-19.525-48.186-4.175-97.7,1.755-111.665" transform="translate(-674.95 -425.622)" fill="#aa852a"/>
        </g>
      </g>
    </g>
  </g>
</svg>
